<?xml version="1.0" encoding="UTF-8" standalone="no" ?>
<!DOCTYPE svg PUBLIC "-//W3C//DTD SVG 1.1//EN" "http://www.w3.org/Graphics/SVG/1.1/DTD/svg11.dtd">
<svg xmlns="http://www.w3.org/2000/svg" xmlns:xlink="http://www.w3.org/1999/xlink" version="1.1" width="2800" height="520" viewBox="0 0 2800 520" xml:space="preserve">
<desc>Created with Fabric.js 3.6.6</desc>
<defs>
</defs>
<g transform="matrix(1 0 0 1 766 256.01)"  >
<g style=""   >
		<g transform="matrix(1 0 0 1 -506.59 22.85)" id="inner-shape"  >
<linearGradient id="SVGID_linear-gradient_5" gradientUnits="userSpaceOnUse" gradientTransform="matrix(1 0 0 1 0 0)"  x1="110.25" y1="213.3" x2="496.14" y2="436.09">
<stop offset="0%" style="stop-color:rgb(170,92,195);stop-opacity: 1"/>
<stop offset="100%" style="stop-color:rgb(0,164,220);stop-opacity: 1"/>
</linearGradient>
<path style="stroke: none; stroke-width: 1; stroke-dasharray: none; stroke-linecap: butt; stroke-dashoffset: 0; stroke-linejoin: miter; stroke-miterlimit: 4; fill: url(#SVGID_linear-gradient_5); fill-rule: nonzero; opacity: 1;"  transform=" translate(-261.41, -278.85)" d="M 261.42 201.62 c -20.44 0 -86.24 119.29 -76.2 139.43 s 142.48 19.92 152.4 0 S 281.86 201.63 261.42 201.62 Z" stroke-linecap="round" />
</g>
		<g transform="matrix(1 0 0 1 -506.61 0)" id="outer-shape"  >
<linearGradient id="SVGID_linear-gradient_6" gradientUnits="userSpaceOnUse" gradientTransform="matrix(1 0 0 1 0 0)"  x1="110.25" y1="213.3" x2="496.14" y2="436.09">
<stop offset="0%" style="stop-color:rgb(170,92,195);stop-opacity: 1"/>
<stop offset="100%" style="stop-color:rgb(0,164,220);stop-opacity: 1"/>
</linearGradient>
<path style="stroke: none; stroke-width: 1; stroke-dasharray: none; stroke-linecap: butt; stroke-dashoffset: 0; stroke-linejoin: miter; stroke-miterlimit: 4; fill: url(#SVGID_linear-gradient_6); fill-rule: nonzero; opacity: 1;"  transform=" translate(-261.39, -256)" d="M 261.42 23.3 C 199.83 23.3 1.57 382.73 31.8 443.43 s 429.34 60 459.24 0 S 323 23.3 261.42 23.3 Z M 411.9 390.76 c -19.59 39.33 -281.08 39.77 -300.9 0 S 221.1 115.48 261.45 115.48 S 431.49 351.42 411.9 390.76 Z" stroke-linecap="round" />
</g>
		<g transform="matrix(1 0 0 1 -130.76 -0.46)" id="jellyfin-light-outlines"  >
<path style="stroke: none; stroke-width: 1; stroke-dasharray: none; stroke-linecap: butt; stroke-dashoffset: 0; stroke-linejoin: miter; stroke-miterlimit: 4; fill: rgb(255,255,255); fill-rule: nonzero; opacity: 1;"  transform=" translate(-593.44, -255.54)" d="M 556.64 350.75 a 67 67 0 0 1 -22.87 -27.47 a 8.91 8.91 0 0 1 -1.49 -4.75 a 7.42 7.42 0 0 1 2.83 -5.94 a 9.25 9.25 0 0 1 6.09 -2.38 c 3.16 0 5.94 1.69 8.31 5.05 a 48.09 48.09 0 0 0 16.34 20.34 a 40.59 40.59 0 0 0 24 7.58 q 20.51 0 33.27 -12.62 t 12.77 -33.12 V 159 a 8.44 8.44 0 0 1 2.67 -6.39 a 9.56 9.56 0 0 1 6.83 -2.52 a 9 9 0 0 1 6.68 2.52 a 8.7 8.7 0 0 1 2.53 6.39 v 138.4 a 64.7 64.7 0 0 1 -8.32 32.67 a 59 59 0 0 1 -23 22.72 Q 608.62 361 589.9 361 A 57.21 57.21 0 0 1 556.64 350.75 Z" stroke-linecap="round" />
</g>
		<g transform="matrix(1 0 0 1 40.93 25.85)" id="jellyfin-light-outlines"  >
<path style="stroke: none; stroke-width: 1; stroke-dasharray: none; stroke-linecap: butt; stroke-dashoffset: 0; stroke-linejoin: miter; stroke-miterlimit: 4; fill: rgb(255,255,255); fill-rule: nonzero; opacity: 1;"  transform=" translate(-765.13, -281.85)" d="M 831.66 279.47 a 8.77 8.77 0 0 1 -6.24 2.53 H 713.16 q 0 17.82 7.27 31.92 a 54.91 54.91 0 0 0 20.79 22.28 q 13.51 8.18 31.93 8.17 a 54 54 0 0 0 25.54 -5.94 a 52.7 52.7 0 0 0 18.12 -15.15 a 10 10 0 0 1 6.24 -2.67 a 8.14 8.14 0 0 1 7.72 7.72 a 8.81 8.81 0 0 1 -3 6.24 a 74.7 74.7 0 0 1 -23.91 19 A 65.56 65.56 0 0 1 773.45 361 q -22.87 0 -40.4 -9.8 a 69.51 69.51 0 0 1 -27.32 -27.48 q -9.79 -17.66 -9.8 -40.83 q 0 -24.36 9.65 -42.62 t 25.69 -27.92 a 65.2 65.2 0 0 1 34.16 -9.65 A 70 70 0 0 1 798.84 211 a 65.78 65.78 0 0 1 25.39 24.36 q 9.81 16 10.1 38 A 8.07 8.07 0 0 1 831.66 279.47 Z M 733.5 231.8 Q 718.8 243.68 714.64 266 H 815.92 v -2.38 A 46.91 46.91 0 0 0 807 240.27 a 48.47 48.47 0 0 0 -18.56 -15.15 a 54 54 0 0 0 -23 -5.2 Q 748.2 219.92 733.5 231.8 Z" stroke-linecap="round" />
</g>
		<g transform="matrix(1 0 0 1 157.65 -7.8)" id="jellyfin-light-outlines"  >
<path style="stroke: none; stroke-width: 1; stroke-dasharray: none; stroke-linecap: butt; stroke-dashoffset: 0; stroke-linejoin: miter; stroke-miterlimit: 4; fill: rgb(255,255,255); fill-rule: nonzero; opacity: 1;"  transform=" translate(-881.85, -248.2)" d="M 888.24 355.5 a 8.92 8.92 0 0 1 -15.3 -6.38 v -202 a 8.91 8.91 0 1 1 17.82 0 v 202 A 8.65 8.65 0 0 1 888.24 355.5 Z" stroke-linecap="round" />
</g>
		<g transform="matrix(1 0 0 1 225.96 -7.8)" id="jellyfin-light-outlines"  >
<path style="stroke: none; stroke-width: 1; stroke-dasharray: none; stroke-linecap: butt; stroke-dashoffset: 0; stroke-linejoin: miter; stroke-miterlimit: 4; fill: rgb(255,255,255); fill-rule: nonzero; opacity: 1;"  transform=" translate(-950.16, -248.2)" d="M 956.55 355.5 a 8.92 8.92 0 0 1 -15.3 -6.38 v -202 a 8.91 8.91 0 1 1 17.82 0 v 202 A 8.65 8.65 0 0 1 956.55 355.5 Z" stroke-linecap="round" />
</g>
		<g transform="matrix(1 0 0 1 340.16 54.5)" id="jellyfin-light-outlines"  >
<path style="stroke: none; stroke-width: 1; stroke-dasharray: none; stroke-linecap: butt; stroke-dashoffset: 0; stroke-linejoin: miter; stroke-miterlimit: 4; fill: rgb(255,255,255); fill-rule: nonzero; opacity: 1;"  transform=" translate(-1064.36, -310.5)" d="M 1122.86 206.11 a 8.7 8.7 0 0 1 2.53 6.39 v 131 q 0 23.44 -9.21 40.09 a 61.58 61.58 0 0 1 -25.54 25.25 q -16.34 8.61 -36.83 8.61 a 96.73 96.73 0 0 1 -23.31 -2.68 a 61.72 61.72 0 0 1 -18 -7.12 q -6.24 -3.87 -6.24 -8.62 a 17.94 17.94 0 0 1 0.6 -3 a 8.06 8.06 0 0 1 3 -4.45 a 7.49 7.49 0 0 1 4.45 -1.49 a 7.91 7.91 0 0 1 3.56 0.89 q 19 10.39 36.24 10.4 q 24.65 0 39.06 -15.44 t 14.4 -42.18 V 333.38 a 54.37 54.37 0 0 1 -21.38 20 a 62.55 62.55 0 0 1 -30.3 7.58 q -25.83 0 -39.2 -15.45 t -13.37 -41.87 V 212.5 a 8.91 8.91 0 1 1 17.82 0 V 301 q 0 21.39 9.36 32.38 t 29.25 11 a 48 48 0 0 0 23.32 -6.09 a 49.88 49.88 0 0 0 17.82 -16 a 37.44 37.44 0 0 0 6.68 -21.24 V 212.5 a 9 9 0 0 1 15.29 -6.39 Z" stroke-linecap="round" />
</g>
		<g transform="matrix(1 0 0 1 503.08 -7.21)" id="jellyfin-light-outlines"  >
<path style="stroke: none; stroke-width: 1; stroke-dasharray: none; stroke-linecap: butt; stroke-dashoffset: 0; stroke-linejoin: miter; stroke-miterlimit: 4; fill: rgb(255,255,255); fill-rule: nonzero; opacity: 1;"  transform=" translate(-1227.28, -248.79)" d="M 1210.18 161.41 q -5.21 6.24 -5.2 17.23 v 30.59 h 33.27 a 8.19 8.19 0 0 1 5.79 2.38 a 8.26 8.26 0 0 1 0 11.88 a 8.22 8.22 0 0 1 -5.79 2.37 H 1205 V 349.12 a 8.91 8.91 0 1 1 -17.82 0 V 225.86 h -21.68 a 7.83 7.83 0 0 1 -5.94 -2.52 a 8.21 8.21 0 0 1 -2.37 -5.79 a 8 8 0 0 1 2.37 -6.09 a 8.33 8.33 0 0 1 5.94 -2.23 h 21.68 V 178.64 q 0 -18.7 10.84 -29 t 29 -10.24 a 46.1 46.1 0 0 1 15.45 2.52 q 7.13 2.53 7.12 8.17 a 8.07 8.07 0 0 1 -2.37 5.94 a 7.37 7.37 0 0 1 -5.35 2.37 a 18.81 18.81 0 0 1 -6.53 -1.48 a 42 42 0 0 0 -10.4 -1.78 Q 1215.37 155.18 1210.18 161.41 Z M 1276 180.87 c -2.19 -1.88 -3.27 -4.61 -3.27 -8.17 v -3 q 0 -5.34 3.41 -8.17 t 9.36 -2.82 q 11.88 0 11.88 11 v 3 c 0 3.56 -1 6.29 -3.12 8.17 s -5.1 2.82 -9.06 2.82 S 1278.14 182.75 1276 180.87 Z m 15.59 174.63 a 8.92 8.92 0 0 1 -15.3 -6.38 V 212.5 a 8.91 8.91 0 1 1 17.82 0 V 349.12 A 8.65 8.65 0 0 1 1291.56 355.5 Z" stroke-linecap="round" />
</g>
		<g transform="matrix(1 0 0 1 678.73 24.38)" id="jellyfin-light-outlines"  >
<path style="stroke: none; stroke-width: 1; stroke-dasharray: none; stroke-linecap: butt; stroke-dashoffset: 0; stroke-linejoin: miter; stroke-miterlimit: 4; fill: rgb(255,255,255); fill-rule: nonzero; opacity: 1;"  transform=" translate(-1402.93, -280.38)" d="M 1452.53 218.88 q 12.92 16.2 12.92 42.92 v 87.32 a 8.4 8.4 0 0 1 -2.67 6.38 a 8.8 8.8 0 0 1 -6.24 2.53 a 8.64 8.64 0 0 1 -8.91 -8.91 V 262.69 q 0 -19.31 -9.65 -31.33 t -29.85 -12 a 53.28 53.28 0 0 0 -42.77 21.83 a 36.24 36.24 0 0 0 -7.13 21.53 v 86.43 a 8.91 8.91 0 1 1 -17.82 0 V 216.06 a 8.91 8.91 0 1 1 17.82 0 V 232.4 q 8 -12.77 23 -21.24 A 61.84 61.84 0 0 1 1412 202.7 Q 1439.61 202.7 1452.53 218.88 Z" stroke-linecap="round" />
</g>
</g>
</g>
<g transform="matrix(4.85 0 0 4.85 2241.07 273.16)" style=""  >
		<text xml:space="preserve" font-family="'Open Sans', sans-serif" font-size="48" font-style="normal" font-weight="normal" style="stroke: none; stroke-width: 3; stroke-dasharray: none; stroke-linecap: butt; stroke-dashoffset: 0; stroke-linejoin: miter; stroke-miterlimit: 4; fill: rgb(0,0,0); fill-rule: nonzero; opacity: 1; white-space: pre;" ><tspan x="-134.49" y="15.08" style="fill: rgb(255,255,255); ">for Node.js</tspan></text>
</g>
</svg>